<?xml version="1.0" standalone="no"?><!DOCTYPE svg PUBLIC "-//W3C//DTD SVG 1.1//EN" "http://www.w3.org/Graphics/SVG/1.1/DTD/svg11.dtd" ><svg xmlns="http://www.w3.org/2000/svg"><metadata>Generated by Glyphter</metadata><defs><font id="Glyphter" horiz-adv-x="0"><font-face units-per-em="1024" ascent="1024" descent="0" font-family="Glyphter" font-weight="normal" /><missing-glyph horiz-adv-x="0" /><glyph unicode="&#x0041;" d="M893.269,841.668C882.972,878.077,861.696,910.049,832.512,932.691C803.385,955.332,767.943,967.45,731.648,967.222C689.55,967.165,648.988,950.668,617.927,920.972C586.866,891.219,567.58,850.429,563.826,806.625C563.826,806.625,460.174,806.625,460.174,806.625C456.363,850.486,437.02,891.332,405.902,921.028C374.784,950.724,334.165,967.222,292.011,967.222C255.772,967.393,220.388,955.276,191.317,932.634C162.19,909.992,140.914,878.077,130.674,841.668C130.674,841.668,2.162,393.612,2.162,393.612C0.74,388.662,0,383.485,0,378.252C0,378.252,0,324.719,0,324.719C0.057,253.722,27.079,185.683,75.093,135.507C123.051,85.331,188.132,57.057,256.057,57C305.778,57.114,354.418,72.36,396.06,100.861C437.646,129.363,470.414,169.981,490.325,217.654C490.325,217.654,533.618,217.654,533.618,217.654C553.586,169.981,586.297,129.363,627.94,100.861C669.525,72.36,718.165,57.114,767.943,57C835.812,57.057,900.892,85.331,948.907,135.507C996.921,185.74,1023.943,253.779,1024,324.776C1024,324.776,1024,378.252,1024,378.252C1024,383.485,1023.204,388.662,1021.838,393.612C1021.838,393.612,893.269,841.668,893.269,841.668C893.269,841.668,893.269,841.668,893.269,841.668M256.057,164.065C215.324,164.122,176.242,181.075,147.456,211.226C118.67,241.32,102.457,282.109,102.4,324.719C102.4,328.815,103.253,332.57,103.481,336.609C106.325,376.943,123.563,414.66,151.836,442.252C180.11,469.843,217.316,485.203,256,485.373C296.732,485.373,335.815,468.42,364.601,438.326C393.387,408.175,409.6,367.329,409.6,324.719C409.6,324.719,409.6,324.264,409.6,324.264C409.429,281.768,393.159,241.036,364.373,211.055C335.644,181.018,296.676,164.179,256.057,164.065C256.057,164.065,256.057,164.065,256.057,164.065M767.943,164.065C727.324,164.179,688.356,181.018,659.57,211.055C630.784,241.036,614.571,281.768,614.4,324.264C614.4,324.264,614.4,324.719,614.4,324.719C614.4,345.825,618.325,366.703,626.062,386.216C633.799,405.672,645.063,423.364,659.342,438.326C688.128,468.42,727.211,485.373,767.943,485.373C808.676,485.373,847.758,468.477,876.601,438.326C905.387,408.232,921.6,367.386,921.6,324.776C921.543,282.166,905.33,241.32,876.544,211.226C847.701,181.075,808.676,164.122,767.943,164.065C767.943,164.065,767.943,164.065,767.943,164.065" class="icon-about"/><glyph unicode="&#x0042;" d="M482.813,11.548C482.813,11.548,69.117,405.39,69.117,405.39C61.38,412.786,57,422.798,57,433.266C57,443.733,61.38,453.746,69.117,461.141C76.911,468.537,87.436,472.69,98.415,472.69C109.395,472.69,119.919,468.537,127.713,461.141C127.713,461.141,470.753,134.485,470.753,134.485C470.753,134.485,470.753,984.576,470.753,984.576C470.753,995.044,475.076,1005.056,482.87,1012.452C490.607,1019.847,501.132,1024,512.111,1024C523.091,1024,533.615,1019.847,541.352,1012.452C549.089,1005.056,553.469,995.044,553.469,984.576C553.469,984.576,553.469,134.485,553.469,134.485C553.469,134.485,896.509,461.141,896.509,461.141C904.246,468.537,914.828,472.69,925.807,472.69C936.787,472.69,947.311,468.537,955.105,461.141C962.842,453.746,967.222,443.676,967.222,433.266C967.222,422.798,962.842,412.786,955.105,405.39C955.105,405.39,541.409,11.548,541.409,11.548C537.54,7.851,532.989,4.949,527.983,2.958C522.92,1.024,517.572,0,512.111,0C506.65,0,501.245,1.024,496.239,2.958C491.233,4.949,486.682,7.851,482.813,11.548C482.813,11.548,482.813,11.548,482.813,11.548" class="icon-arrow-down"/><glyph unicode="&#x0043;" d="M465.026,992.852C479.575,1002.486,499.302,1000.979,512.147,988.199C526.762,973.584,526.828,949.859,512.213,935.178C512.213,935.178,127.832,549.487,127.832,549.487C127.832,549.487,986.578,549.487,986.578,549.487C986.578,549.487,994.115,548.766,994.115,548.766C1011.22,545.227,1024,530.153,1024,512.064C1024,493.976,1011.22,478.837,994.115,475.298C994.115,475.298,986.578,474.577,986.578,474.577C986.578,474.577,127.832,474.577,127.832,474.577C127.832,474.577,512.213,88.951,512.213,88.951C512.213,88.951,516.997,83.052,516.997,83.052C526.566,68.503,524.927,48.71,512.147,35.93C499.302,23.15,479.575,21.577,465.026,31.211C465.026,31.211,459.127,35.996,459.127,35.996C459.127,35.996,10.912,485.587,10.912,485.587C-3.637,500.202,-3.637,523.861,10.912,538.476C10.912,538.476,459.127,988.068,459.127,988.068C459.127,988.068,465.026,992.852,465.026,992.852C465.026,992.852,465.026,992.852,465.026,992.852" class="icon-arrow-left"/><glyph unicode="&#x0044;" d="M564.517,35.869C550.145,21.432,526.848,21.366,512.41,35.738C497.972,50.11,497.907,73.473,512.279,87.911C512.279,87.911,564.517,35.869,564.517,35.869C564.517,35.869,564.517,35.869,564.517,35.869M512.41,988.37C526.848,1002.742,550.145,1002.676,564.517,988.304C564.517,988.304,1013.27,538.042,1013.27,538.042C1027.577,523.67,1027.577,500.372,1013.27,486C1013.27,486,564.517,35.869,564.517,35.869C564.517,35.869,538.464,61.857,538.464,61.857C538.464,61.857,512.279,87.911,512.279,87.911C512.279,87.911,898.358,475.172,898.358,475.172C898.358,475.172,36.882,475.172,36.882,475.172C16.538,475.172,0.066,491.71,0,512.054C0,532.398,16.538,548.936,36.882,548.936C36.882,548.936,898.293,548.936,898.293,548.936C898.293,548.936,512.279,936.262,512.279,936.262C497.907,950.635,497.972,973.997,512.41,988.37C512.41,988.37,512.41,988.37,512.41,988.37" class="icon-arrow-right"/><glyph unicode="&#x0045;" d="M541.409,1012.952C541.409,1012.952,955.105,619.11,955.105,619.11C962.899,611.714,967.222,601.702,967.222,591.234C967.222,580.767,962.899,570.754,955.105,563.359C947.311,555.963,936.787,551.81,925.807,551.81C914.828,551.81,904.303,555.963,896.509,563.359C896.509,563.359,553.469,890.015,553.469,890.015C553.469,890.015,553.469,39.924,553.469,39.924C553.469,29.456,549.146,19.444,541.352,12.048C533.615,4.653,523.091,0.5,512.111,0.5C501.132,0.5,490.607,4.653,482.87,12.048C475.133,19.444,470.753,29.456,470.753,39.924C470.753,39.924,470.753,890.015,470.753,890.015C470.753,890.015,127.713,563.359,127.713,563.359C119.976,555.963,109.395,551.81,98.415,551.81C87.436,551.81,76.911,555.963,69.117,563.359C61.38,570.754,57,580.767,57,591.234C57,601.702,61.38,611.714,69.117,619.11C69.117,619.11,482.813,1012.952,482.813,1012.952C486.682,1016.592,491.233,1019.551,496.239,1021.542C501.302,1023.476,506.65,1024.5,512.111,1024.5C517.572,1024.5,522.977,1023.476,527.983,1021.542C532.989,1019.551,537.54,1016.592,541.409,1012.952C541.409,1012.952,541.409,1012.952,541.409,1012.952" class="icon-arrow-up"/><glyph unicode="&#x0046;" d="M360.388,256.5C360.388,256.5,259.24,256.5,259.24,256.5C259.24,256.5,259.24,358.9,259.24,358.9C259.24,358.9,360.388,358.9,360.388,358.9C360.388,358.9,360.388,256.5,360.388,256.5C360.388,256.5,360.388,256.5,360.388,256.5M562.685,256.5C562.685,256.5,461.537,256.5,461.537,256.5C461.537,256.5,461.537,358.9,461.537,358.9C461.537,358.9,562.685,358.9,562.685,358.9C562.685,358.9,562.685,256.5,562.685,256.5C562.685,256.5,562.685,256.5,562.685,256.5M764.925,256.5C764.925,256.5,663.777,256.5,663.777,256.5C663.777,256.5,663.777,358.9,663.777,358.9C663.777,358.9,764.925,358.9,764.925,358.9C764.925,358.9,764.925,256.5,764.925,256.5C764.925,256.5,764.925,256.5,764.925,256.5M360.388,461.3C360.388,461.3,259.24,461.3,259.24,461.3C259.24,461.3,259.24,563.7,259.24,563.7C259.24,563.7,360.388,563.7,360.388,563.7C360.388,563.7,360.388,461.3,360.388,461.3C360.388,461.3,360.388,461.3,360.388,461.3M562.685,461.3C562.685,461.3,461.537,461.3,461.537,461.3C461.537,461.3,461.537,563.7,461.537,563.7C461.537,563.7,562.685,563.7,562.685,563.7C562.685,563.7,562.685,461.3,562.685,461.3C562.685,461.3,562.685,461.3,562.685,461.3M764.925,461.3C764.925,461.3,663.777,461.3,663.777,461.3C663.777,461.3,663.777,563.7,663.777,563.7C663.777,563.7,764.925,563.7,764.925,563.7C764.925,563.7,764.925,461.3,764.925,461.3C764.925,461.3,764.925,461.3,764.925,461.3M360.388,1024.5C360.388,1024.5,360.388,922.1,360.388,922.1C360.388,922.1,663.777,922.1,663.777,922.1C663.777,922.1,663.777,1024.5,663.777,1024.5C663.777,1024.5,764.925,1024.5,764.925,1024.5C764.925,1024.5,764.925,922.1,764.925,922.1C764.925,922.1,866.074,922.1,866.074,922.1C921.825,922.1,967.222,876.191,967.222,819.7C967.222,819.7,967.222,102.9,967.222,102.9C967.222,46.409,921.825,0.5,866.074,0.5C866.074,0.5,158.092,0.5,158.092,0.5C102.34,0.5,57,46.409,57,102.9C57,102.9,57,819.7,57,819.7C57,876.191,102.34,922.1,158.092,922.1C158.092,922.1,259.24,922.1,259.24,922.1C259.24,922.1,259.24,1024.5,259.24,1024.5C259.24,1024.5,360.388,1024.5,360.388,1024.5C360.388,1024.5,360.388,1024.5,360.388,1024.5M158.092,717.3C158.092,717.3,158.092,102.9,158.092,102.9C158.092,102.9,866.131,102.9,866.131,102.9C866.131,102.9,866.074,717.3,866.074,717.3C866.074,717.3,158.092,717.3,158.092,717.3C158.092,717.3,158.092,717.3,158.092,717.3" class="icon-calendar"/><glyph unicode="&#x0047;" d="M345.995,128.018C345.995,130.735,343.791,132.888,341.125,132.888C338.409,132.888,336.204,130.735,336.204,128.018C336.204,125.301,338.409,123.149,341.125,123.149C343.791,123.149,345.995,125.301,345.995,128.018C345.995,128.018,345.995,128.018,345.995,128.018M884.209,128.018C884.209,130.735,882.005,132.888,879.339,132.888C876.623,132.888,874.418,130.735,874.418,128.018C874.418,125.301,876.623,123.149,879.339,123.149C882.005,123.149,884.209,125.301,884.209,128.018C884.209,128.018,884.209,128.018,884.209,128.018M187.35,968.914C187.35,968.914,190.323,968.76,190.323,968.76C205.29,967.427,217.695,956.201,220.36,941.183C220.36,941.183,235.84,853.582,235.84,853.582C235.84,853.582,971.194,853.582,971.194,853.582C978.012,853.582,984.778,852.249,991.083,849.686C991.083,849.686,993.748,848.507,993.748,848.507C993.748,848.507,996.362,847.175,996.362,847.175C1001.488,844.407,1006.153,840.767,1010.1,836.462C1010.1,836.462,1011.996,834.258,1011.996,834.258C1011.996,834.258,1013.79,831.951,1013.79,831.951C1017.225,827.235,1019.89,821.956,1021.633,816.368C1021.633,816.368,1022.402,813.549,1022.402,813.549C1022.402,813.549,1023.068,810.73,1023.068,810.73C1024.144,804.989,1024.298,799.094,1023.478,793.302C1023.478,793.302,1022.966,790.432,1022.966,790.432C1022.966,790.432,953.767,444.437,953.767,444.437C951.357,432.494,944.899,421.729,935.467,413.989C926.036,406.249,914.195,402.046,901.996,402.046C901.996,402.046,901.996,401.995,901.996,401.995C901.996,401.995,315.496,401.995,315.496,401.995C315.496,401.995,330.822,315.368,330.822,315.368C330.822,315.368,917.783,315.368,917.783,315.368C917.783,315.368,921.217,315.163,921.217,315.163C938.133,313.42,951.306,299.17,951.306,281.794C951.306,264.417,938.133,250.116,921.217,248.424C921.217,248.424,917.783,248.219,917.783,248.219C917.783,248.219,302.681,248.219,302.681,248.219C286.381,248.219,272.439,259.958,269.62,275.95C269.62,275.95,159.158,901.765,159.158,901.765C159.158,901.765,33.574,901.765,33.574,901.765C15.019,901.765,0,916.835,0,935.339C0,953.895,15.019,968.914,33.574,968.914C33.574,968.914,187.35,968.914,187.35,968.914C187.35,968.914,187.35,968.914,187.35,968.914M303.655,469.143C303.655,469.143,890.257,469.143,890.257,469.143C890.257,469.143,953.715,786.433,953.715,786.433C953.715,786.433,247.681,786.433,247.681,786.433C247.681,786.433,303.655,469.143,303.655,469.143C303.655,469.143,303.655,469.143,303.655,469.143M413.092,128.018C413.092,88.242,380.851,56,341.125,56C301.349,56,269.107,88.242,269.107,128.018C269.107,167.795,301.349,200.036,341.125,200.036C380.851,200.036,413.092,167.795,413.092,128.018C413.092,128.018,413.092,128.018,413.092,128.018M951.306,128.018C951.306,88.242,919.065,56,879.339,56C839.563,56,807.321,88.242,807.321,128.018C807.321,167.795,839.563,200.036,879.339,200.036C919.065,200.036,951.306,167.795,951.306,128.018C951.306,128.018,951.306,128.018,951.306,128.018" class="icon-cart"/><glyph unicode="&#x0048;" d="M0.5,877.929C0.5,877.929,674.536,877.929,674.536,877.929C674.536,877.929,674.536,760.071,674.536,760.071C674.536,760.071,0.5,760.071,0.5,760.071C0.5,760.071,0.5,877.929,0.5,877.929C0.5,877.929,0.5,877.929,0.5,877.929M0.5,642.214C0.5,642.214,674.536,642.214,674.536,642.214C674.536,642.214,674.536,524.307,674.536,524.307C674.536,524.307,0.5,524.307,0.5,524.307C0.5,524.307,0.5,642.214,0.5,642.214C0.5,642.214,0.5,642.214,0.5,642.214M0.5,406.45C0.5,406.45,429.458,406.45,429.458,406.45C429.458,406.45,429.458,288.592,429.458,288.592C429.458,288.592,0.5,288.592,0.5,288.592C0.5,288.592,0.5,406.45,0.5,406.45C0.5,406.45,0.5,406.45,0.5,406.45M937.996,566.047C937.996,566.047,674.487,313.168,674.487,313.168C674.487,313.168,595.298,389.237,595.298,389.237C595.298,389.237,508.697,305.854,508.697,305.854C508.697,305.854,674.487,146.5,674.487,146.5C674.487,146.5,1024.5,482.616,1024.5,482.616C1024.5,482.616,937.996,566.047,937.996,566.047C937.996,566.047,937.996,566.047,937.996,566.047" class="icon-catalog"/><glyph unicode="&#x0049;" d="M606.077,513.264C606.077,513.264,1004.465,910.692,1004.465,910.692C1030.512,936.611,1030.512,978.593,1004.465,1004.513C978.417,1030.496,936.371,1030.496,910.388,1004.513C910.388,1004.513,512,607.149,512,607.149C512,607.149,113.612,1004.513,113.612,1004.513C87.565,1030.496,45.519,1030.496,19.535,1004.513C-6.512,978.593,-6.512,936.611,19.535,910.692C19.535,910.692,417.923,513.264,417.923,513.264C417.923,513.264,19.535,113.852,19.535,113.852C-6.512,87.933,-6.512,45.951,19.535,20.031C31.503,8,49.55,0,65.55,0C83.597,0,99.597,8,113.612,20.031C113.612,20.031,512,419.379,512,419.379C512,419.379,910.388,20.031,910.388,20.031C924.403,8,940.403,0,958.386,0C974.45,0,992.433,8,1004.465,20.031C1030.512,45.951,1030.512,87.933,1004.465,113.852C1004.465,113.852,606.077,513.264,606.077,513.264C606.077,513.264,606.077,513.264,606.077,513.264" class="icon-cross"/><glyph unicode="&#x004a;" d="M875.583,0C875.583,0,148.834,0,148.834,0C91.575,0,45,45.926,45,102.4C45,102.4,45,819.2,45,819.2C45,875.674,91.575,921.6,148.834,921.6C148.834,921.6,252.65,921.6,252.65,921.6C252.65,921.6,252.65,1024,252.65,1024C252.65,1024,356.467,1024,356.467,1024C356.467,1024,356.467,921.6,356.467,921.6C356.467,921.6,667.933,921.6,667.933,921.6C667.933,921.6,667.933,1024,667.933,1024C667.933,1024,771.767,1024,771.767,1024C771.767,1024,771.767,921.6,771.767,921.6C771.767,921.6,875.583,921.6,875.583,921.6C932.842,921.6,979.4,875.674,979.4,819.2C979.4,819.2,979.4,102.4,979.4,102.4C979.4,45.926,932.842,0,875.583,0C875.583,0,875.583,0,875.583,0M875.635,102.4C875.635,102.4,875.583,716.8,875.583,716.8C875.583,716.8,148.834,716.8,148.834,716.8C148.834,716.8,148.834,102.4,148.834,102.4C148.834,102.4,875.635,102.4,875.635,102.4C875.635,102.4,875.635,102.4,875.635,102.4M356.467,563.2C356.467,563.2,252.65,563.2,252.65,563.2C252.65,563.2,252.65,460.8,252.65,460.8C252.65,460.8,356.467,460.8,356.467,460.8C356.467,460.8,356.467,563.2,356.467,563.2C356.467,563.2,356.467,563.2,356.467,563.2M356.467,358.4C356.467,358.4,252.65,358.4,252.65,358.4C252.65,358.4,252.65,256,252.65,256C252.65,256,356.467,256,356.467,256C356.467,256,356.467,358.4,356.467,358.4C356.467,358.4,356.467,358.4,356.467,358.4M564.117,563.2C564.117,563.2,460.3,563.2,460.3,563.2C460.3,563.2,460.3,460.8,460.3,460.8C460.3,460.8,564.117,460.8,564.117,460.8C564.117,460.8,564.117,563.2,564.117,563.2C564.117,563.2,564.117,563.2,564.117,563.2M564.117,358.4C564.117,358.4,460.3,358.4,460.3,358.4C460.3,358.4,460.3,256,460.3,256C460.3,256,564.117,256,564.117,256C564.117,256,564.117,358.4,564.117,358.4C564.117,358.4,564.117,358.4,564.117,358.4M771.767,563.2C771.767,563.2,667.933,563.2,667.933,563.2C667.933,563.2,667.933,460.8,667.933,460.8C667.933,460.8,771.767,460.8,771.767,460.8C771.767,460.8,771.767,563.2,771.767,563.2C771.767,563.2,771.767,563.2,771.767,563.2M771.767,358.4C771.767,358.4,667.933,358.4,667.933,358.4C667.933,358.4,667.933,256,667.933,256C667.933,256,771.767,256,771.767,256C771.767,256,771.767,358.4,771.767,358.4C771.767,358.4,771.767,358.4,771.767,358.4" class="icon-date"/><glyph unicode="&#x004b;" d="M474.317,14.42C474.317,14.42,102.5,321.264,102.5,623.141C102.5,729.586,145.662,831.68,222.462,906.944C299.263,982.209,403.455,1024.5,512.103,1024.5C620.75,1024.5,724.942,982.209,801.743,906.944C878.543,831.68,921.705,729.586,921.705,623.141C921.705,321.264,549.888,14.42,549.888,14.42C529.203,-4.217,495.155,-4.063,474.317,14.42C474.317,14.42,474.317,14.42,474.317,14.42M512.103,447.575C535.655,447.575,558.951,452.132,580.66,460.938C602.42,469.745,622.183,482.698,638.823,498.98C655.463,515.313,668.673,534.667,677.684,555.966C686.644,577.265,691.304,600.101,691.304,623.141C691.304,646.232,686.644,669.067,677.684,690.367C668.673,711.666,655.463,731.02,638.823,747.301C622.183,763.634,602.42,776.537,580.66,785.395C558.951,794.201,535.655,798.758,512.103,798.758C464.589,798.758,418.969,780.274,385.382,747.301C351.794,714.38,332.901,669.733,332.901,623.141C332.901,576.6,351.794,531.953,385.382,498.98C418.969,466.058,464.589,447.575,512.103,447.575C512.103,447.575,512.103,447.575,512.103,447.575" class="icon-location"/><glyph unicode="&#x004c;" d="M283.533,0C246.903,0,218.833,10.448,199.574,31.343C180.567,52.238,171,83.204,171,124.239C171,124.239,171,483.867,171,483.867C171,524.902,180.567,555.616,199.574,576.134C218.833,597.029,246.903,607.477,283.533,607.477C283.533,607.477,741.092,607.477,741.092,607.477C777.847,607.477,805.666,597.029,824.673,576.134C843.932,555.616,853.625,524.902,853.625,483.867C853.625,483.867,853.625,124.239,853.625,124.239C853.625,83.204,843.932,52.238,824.673,31.343C805.666,10.448,777.847,0,741.092,0C741.092,0,283.533,0,283.533,0C283.533,0,283.533,0,283.533,0M258.484,567.322C258.484,567.322,258.484,732.22,258.484,732.22C258.484,797.675,270.568,851.928,294.484,894.977C318.904,938.153,350.373,970.377,389.017,991.65C427.661,1013.175,468.696,1024,512.124,1024C555.802,1024,596.964,1013.175,635.608,991.65C674.252,970.377,705.595,938.153,729.637,894.977C753.931,851.928,766.141,797.675,766.141,732.22C766.141,732.22,766.141,567.322,766.141,567.322C766.141,567.322,687.091,567.322,687.091,567.322C687.091,567.322,687.091,743.674,687.091,743.674C687.091,787.479,678.909,824.487,662.545,854.319C646.559,884.278,625.286,906.935,598.6,922.166C572.292,937.523,543.467,945.076,512.124,945.076C481.032,945.076,452.207,937.523,425.521,922.166C399.213,906.935,378.066,884.278,362.08,854.319C346.093,824.487,338.037,787.479,338.037,743.674C338.037,743.674,338.037,567.322,338.037,567.322C338.037,567.322,258.484,567.322,258.484,567.322C258.484,567.322,258.484,567.322,258.484,567.322" class="icon-Vector"/><glyph unicode="&#x004d;" d="M1024,740.712C1024,740.712,1024,256.077,1024,256.077C1024,216.912,1009.042,179.213,982.157,150.711C955.272,122.209,918.532,105.027,879.418,102.753C879.418,102.753,870.423,102.5,870.423,102.5C870.423,102.5,153.577,102.5,153.577,102.5C114.412,102.5,76.713,117.458,48.211,144.343C19.709,171.228,2.527,207.968,0.253,247.082C0.253,247.082,0,256.077,0,256.077C0,256.077,0,740.712,0,740.712C0,740.712,483.574,418.296,483.574,418.296C483.574,418.296,489.537,414.91,489.537,414.91C496.511,411.524,504.192,409.705,511.975,409.705C519.757,409.705,527.489,411.524,534.463,414.91C534.463,414.91,540.426,418.296,540.426,418.296C540.426,418.296,1024,740.712,1024,740.712C1024,740.712,1024,740.712,1024,740.712M870.322,921.68C925.607,921.68,974.071,892.47,1001.107,848.606C1001.107,848.606,511.924,522.45,511.924,522.45C511.924,522.45,22.69,848.606,22.69,848.606C35.526,869.426,53.163,886.911,74.136,899.545C95.108,912.23,118.758,919.658,143.217,921.276C143.217,921.276,153.527,921.68,153.527,921.68C153.527,921.68,870.322,921.68,870.322,921.68C870.322,921.68,870.322,921.68,870.322,921.68" class="icon-mail"/><glyph unicode="&#x004e;" d="M1024,256.333C1024,256.333,1024,171,1024,171C1024,171,0,171,0,171C0,171,0,256.333,0,256.333C0,256.333,1024,256.333,1024,256.333C1024,256.333,1024,256.333,1024,256.333M1024,555C1024,555,1024,469.667,1024,469.667C1024,469.667,0,469.667,0,469.667C0,469.667,0,555,0,555C0,555,1024,555,1024,555C1024,555,1024,555,1024,555M1024,853.667C1024,853.667,1024,768.333,1024,768.333C1024,768.333,0,768.333,0,768.333C0,768.333,0,853.667,0,853.667C0,853.667,1024,853.667,1024,853.667C1024,853.667,1024,853.667,1024,853.667" class="icon-menu"/><glyph unicode="&#x004f;" d="M238.296,610.918C238.296,610.918,608.301,243.416,608.301,243.416C647.952,289.325,899.003,558.466,1024.5,190.85C1024.5,190.85,1011.302,0.5,740.397,0.5C548.852,0.5,350.651,230.217,211.899,361.517C93.001,473.133,0.5,617.517,0.5,748.816C0.5,1017.901,185.503,1024.5,185.503,1024.5C608.301,880.116,238.352,610.918,238.352,610.918" class="icon-phone"/><glyph unicode="&#x0050;" d="M398.199,1024C398.199,1024,56.866,1024,56.866,1024C41.779,1024,27.307,1017.993,16.657,1007.343C6.007,996.693,0,982.221,0,967.134C0,967.134,0,625.801,0,625.801C0,610.714,6.007,596.241,16.657,585.523C27.307,574.874,41.779,568.866,56.866,568.866C56.866,568.866,398.199,568.866,398.199,568.866C413.286,568.866,427.759,574.874,438.409,585.523C449.126,596.241,455.066,610.714,455.066,625.801C455.066,625.801,455.066,967.134,455.066,967.134C455.066,982.221,449.126,996.693,438.409,1007.343C427.759,1017.993,413.286,1024,398.199,1024C398.199,1024,398.199,1024,398.199,1024M967.066,1024C967.066,1024,625.732,1024,625.732,1024C610.645,1024,596.173,1017.993,585.523,1007.343C574.874,996.693,568.866,982.221,568.866,967.134C568.866,967.134,568.866,625.801,568.866,625.801C568.866,610.714,574.874,596.241,585.523,585.523C596.173,574.874,610.645,568.866,625.732,568.866C625.732,568.866,967.066,568.866,967.066,568.866C982.153,568.866,996.625,574.874,1007.343,585.523C1017.993,596.241,1024,610.714,1024,625.801C1024,625.801,1024,967.134,1024,967.134C1024,982.221,1017.993,996.693,1007.343,1007.343C996.625,1017.993,982.153,1024,967.066,1024C967.066,1024,967.066,1024,967.066,1024M398.199,455.134C398.199,455.134,56.866,455.134,56.866,455.134C41.779,455.134,27.307,449.126,16.657,438.477C6.007,427.759,0,413.286,0,398.199C0,398.199,0,56.866,0,56.866C0,41.779,6.007,27.307,16.657,16.657C27.307,6.007,41.779,0,56.866,0C56.866,0,398.199,0,398.199,0C413.286,0,427.759,6.007,438.409,16.657C449.126,27.307,455.066,41.779,455.066,56.866C455.066,56.866,455.066,398.199,455.066,398.199C455.066,413.286,449.126,427.759,438.409,438.477C427.759,449.126,413.286,455.134,398.199,455.134C398.199,455.134,398.199,455.134,398.199,455.134M853.333,398.199C853.333,398.199,739.533,398.199,739.533,398.199C739.533,398.199,739.533,284.467,739.533,284.467C739.533,284.467,625.732,284.467,625.732,284.467C625.732,284.467,625.732,170.667,625.732,170.667C625.732,170.667,739.533,170.667,739.533,170.667C739.533,170.667,739.533,56.866,739.533,56.866C739.533,56.866,853.333,56.866,853.333,56.866C853.333,56.866,853.333,170.667,853.333,170.667C853.333,170.667,967.066,170.667,967.066,170.667C967.066,170.667,967.066,284.467,967.066,284.467C967.066,284.467,853.333,284.467,853.333,284.467C853.333,284.467,853.333,398.199,853.333,398.199C853.333,398.199,853.333,398.199,853.333,398.199" class="icon-widget"/><glyph unicode="&#x0051;" d="M228,940.816C228,940.816,312.594,1024.5,312.594,1024.5C312.594,1024.5,773.451,568.422,773.451,568.422C780.846,561.083,786.763,552.379,790.802,542.822C794.841,533.264,796.889,522.968,796.889,512.614C796.889,502.26,794.841,491.963,790.802,482.406C786.763,472.848,780.846,464.144,773.451,456.863C773.451,456.863,312.594,0.5,312.594,0.5C312.594,0.5,228.057,84.184,228.057,84.184C228.057,84.184,660.583,512.5,660.583,512.5C660.64,512.5,228,940.816,228,940.816C228,940.816,228,940.816,228,940.816" class="icon-right"/><glyph unicode="&#x0052;" d="M461.536,1024.471C387.884,1024.471,315.328,1006.844,249.867,972.98C184.48,939.189,128.088,890.185,85.447,830.137C42.879,770.015,15.232,700.605,4.993,627.684C-5.247,554.762,2.067,480.452,26.423,410.895C50.779,341.411,91.445,278.73,144.984,228.19C198.523,177.649,263.398,140.64,334.198,120.234C404.998,99.901,479.675,96.829,551.865,111.238C624.128,125.647,691.783,157.17,749.344,203.176C749.344,203.176,937.608,14.912,937.608,14.912C947.336,5.55,960.209,0.357,973.667,0.503C987.124,0.649,999.997,5.989,1009.432,15.497C1018.941,25.005,1024.353,37.878,1024.499,51.263C1024.572,64.72,1019.453,77.666,1010.091,87.321C1010.091,87.321,821.827,275.585,821.827,275.585C876.024,343.459,909.961,425.157,919.762,511.463C929.49,597.769,914.715,685.026,877.121,763.286C839.454,841.547,780.502,907.519,706.923,953.744C633.417,999.969,548.354,1024.471,461.536,1024.471C461.536,1024.471,461.536,1024.471,461.536,1024.471M154.126,563.393C154.126,603.767,162.099,643.701,177.531,681.003C192.964,718.305,215.638,752.242,244.162,780.767C272.687,809.292,306.624,831.965,343.926,847.398C381.228,862.83,421.163,870.803,461.536,870.803C501.91,870.803,541.845,862.83,579.146,847.398C616.448,831.965,650.385,809.292,678.91,780.767C707.435,752.242,730.108,718.305,745.541,681.003C760.974,643.701,768.946,603.767,768.946,563.393C768.946,481.914,736.545,403.727,678.91,346.092C621.275,288.384,543.088,255.983,461.536,255.983C379.984,255.983,301.797,288.384,244.162,346.092C186.528,403.727,154.126,481.914,154.126,563.393C154.126,563.393,154.126,563.393,154.126,563.393" class="icon-search"/><glyph unicode="&#x0053;" d="M998.255,807.996C998.255,807.996,789.488,599.293,789.488,599.293C789.488,599.293,599.729,789.052,599.729,789.052C599.729,789.052,808.496,997.755,808.496,997.755C744.752,1023.995,674.737,1030.715,607.217,1017.211C539.697,1003.643,477.682,970.491,429.042,921.787C380.338,873.084,347.122,811.068,333.618,743.548C320.114,676.029,326.898,606.013,353.074,542.333C353.074,542.333,16.244,205.503,16.244,205.503C11.252,200.511,7.284,194.623,4.596,188.095C1.908,181.631,0.5,174.591,0.5,167.551C0.5,160.511,1.908,153.535,4.596,147.007C7.284,140.543,11.252,134.591,16.244,129.599C16.244,129.599,130.163,15.744,130.163,15.744C135.091,10.752,141.043,6.784,147.571,4.096C154.035,1.408,161.011,0,168.051,0C175.155,0,182.131,1.408,188.595,4.096C195.123,6.784,201.075,10.752,206.003,15.744C206.003,15.744,542.833,352.574,542.833,352.574C606.513,326.334,676.529,319.55,744.048,333.118C811.632,346.622,873.648,379.774,922.351,428.478C971.055,477.182,1004.207,539.197,1017.711,606.781C1031.215,674.301,1024.431,744.316,998.255,807.996C998.255,807.996,998.255,807.996,998.255,807.996" class="icon-service"/><glyph unicode="&#x0054;" d="M819.2,410.044C801.28,410.044,783.417,407.655,766.066,402.99C766.066,402.99,666.908,502.204,666.908,502.204C660.366,507.95,651.89,510.965,643.186,510.681C634.482,510.396,626.233,506.812,620.089,500.668C613.945,494.524,610.361,486.275,610.076,477.571C609.792,468.867,612.807,460.391,618.553,453.905C618.553,453.905,732.786,339.673,732.786,339.673C737.451,334.951,743.424,331.708,749.909,330.343C756.395,328.977,763.108,329.546,769.308,331.993C801.906,344.736,838.201,344.508,870.684,331.31C903.111,318.055,929.28,292.91,943.673,260.938C918.414,272.202,890.368,275.559,863.118,270.553C835.925,265.489,810.894,252.348,791.324,232.778C771.812,213.265,758.613,188.234,753.607,160.985C748.601,133.792,751.9,105.745,763.221,80.487C730.852,94.88,705.365,121.276,692.167,154.101C678.912,186.926,678.912,223.619,692.167,256.444C694.556,262.645,695.068,269.358,693.703,275.843C692.338,282.329,689.152,288.245,684.487,292.91C684.487,292.91,512,464.145,512,464.145C512,464.145,758.101,710.19,758.101,710.19C758.101,710.19,762.88,705.354,762.88,705.354C772.38,695.854,783.701,688.288,796.103,683.111C808.562,677.991,821.874,675.317,835.356,675.317C848.839,675.317,862.151,677.991,874.61,683.111C887.012,688.288,898.332,695.854,907.833,705.354C907.833,705.354,929.621,727.427,929.621,727.427C963.3,761.162,988.672,802.236,1003.861,847.463C1003.861,847.463,1022.066,902.133,1022.066,902.133C1024.057,908.163,1024.341,914.592,1022.862,920.793C1021.383,926.937,1018.254,932.569,1013.76,937.006C1013.76,937.006,936.619,1014.432,936.619,1014.432C932.181,1018.926,926.549,1022.055,920.405,1023.534C914.204,1025.013,907.776,1024.729,901.746,1022.794C901.746,1022.794,847.019,1004.533,847.019,1004.533C801.849,989.401,760.775,963.971,727.04,930.293C727.04,930.293,704,908.22,704,908.22C694.5,898.72,686.933,887.399,681.756,874.997C676.58,862.538,673.963,849.226,673.963,835.744C673.963,822.318,676.58,808.949,681.756,796.547C686.933,784.089,694.5,772.825,704,763.267C704,763.267,708.779,758.489,708.779,758.489C708.779,758.489,560.299,608.416,560.299,608.416C560.299,608.416,402.546,766.51,402.546,766.51C410.624,796.832,411.648,828.633,405.504,859.409C399.36,890.186,386.219,919.143,367.104,944.06C348.046,968.977,323.47,989.173,295.31,1003.111C267.15,1017.049,236.203,1024.33,204.8,1024.387C187.676,1024.444,170.667,1022.055,154.226,1017.333C147.115,1015.171,140.857,1010.677,136.476,1004.647C132.153,998.56,129.877,991.221,130.048,983.769C130.219,976.316,132.836,969.091,137.5,963.289C142.165,957.429,148.594,953.276,155.819,951.399C170.098,947.985,182.727,939.737,191.659,928.074C200.59,916.469,205.198,902.076,204.8,887.456C204.629,869.422,197.404,852.241,184.604,839.555C171.861,826.869,154.624,819.701,136.647,819.587C121.97,819.189,107.634,823.854,95.972,832.729C84.309,841.66,76.06,854.289,72.647,868.569C70.884,875.793,66.844,882.336,61.042,887.057C55.296,891.779,48.128,894.51,40.619,894.794C33.28,894.965,26.112,892.633,20.252,888.138C14.45,883.644,10.354,877.329,8.647,870.161C3.356,853.777,0.455,836.768,0,819.587C0,788.185,7.225,757.18,21.163,729.02C35.044,700.86,55.239,676.227,80.213,657.113C105.131,637.998,134.144,624.913,164.921,618.769C195.755,612.682,227.556,613.706,257.934,621.841C257.934,621.841,357.148,522.684,357.148,522.684C363.634,516.938,372.11,513.923,380.814,514.208C389.518,514.492,397.767,518.076,403.911,524.22C410.055,530.364,413.639,538.613,413.924,547.317C414.208,555.964,411.193,564.441,405.447,570.983C405.447,570.983,291.214,684.874,291.214,684.874C286.606,689.312,280.917,692.384,274.716,693.749C268.459,695.114,261.973,694.716,256,692.554C223.232,679.356,186.652,679.356,153.941,692.554C121.173,705.753,94.777,731.068,80.327,763.267C105.643,751.833,133.803,748.362,161.109,753.369C188.473,758.375,213.618,771.516,233.244,791.143C252.871,810.826,266.069,835.971,271.019,863.278C276.025,890.585,272.555,918.745,261.12,944.06C293.319,929.61,318.692,903.214,331.833,870.446C345.031,837.735,345.031,801.155,331.833,768.387C329.444,762.243,328.932,755.53,330.297,749.045C331.662,742.56,334.848,736.643,339.513,731.921C339.513,731.921,512,560.743,512,560.743C512,560.743,345.6,394.343,345.6,394.343C345.6,394.343,297.301,442.357,297.301,442.357C290.759,448.501,282.112,451.971,273.124,451.971C264.135,451.971,255.488,448.501,248.946,442.357C248.946,442.357,30.094,224.473,30.094,224.473C10.923,205.244,0.171,179.246,0.171,152.167C0.171,125.031,10.923,99.033,30.094,79.861C30.094,79.861,78.393,31.505,78.393,31.505C97.621,12.391,123.62,1.639,150.699,1.639C177.835,1.639,203.833,12.391,223.061,31.505C223.061,31.505,441.913,250.357,441.913,250.357C448.228,256.842,451.755,265.489,451.755,274.535C451.755,283.58,448.228,292.227,441.913,298.713C441.913,298.713,393.614,346.044,393.614,346.044C393.614,346.044,463.701,416.473,463.701,416.473C463.701,416.473,621.454,258.72,621.454,258.72C613.319,228.341,612.238,196.54,618.382,165.706C624.469,134.873,637.611,105.859,656.725,80.885C675.84,55.911,700.416,35.715,728.576,21.777C756.793,7.84,787.74,0.558,819.2,0.501C836.324,0.444,853.333,2.777,869.774,7.555C876.885,9.717,883.143,14.154,887.524,20.241C891.847,26.329,894.123,33.61,893.952,41.063C893.781,48.572,891.164,55.74,886.5,61.6C881.835,67.459,875.406,71.612,868.181,73.433C853.902,76.903,841.273,85.095,832.341,96.757C823.41,108.419,818.802,122.755,819.2,137.433C819.314,155.466,826.482,172.761,839.282,185.504C852.025,198.304,869.319,205.529,887.353,205.585C902.03,205.984,916.366,201.376,928.028,192.444C939.691,183.513,947.94,170.883,951.353,156.604C953.116,149.379,957.156,142.894,962.958,138.115C968.704,133.393,975.872,130.663,983.381,130.378C990.72,130.208,997.888,132.54,1003.748,137.034C1009.55,141.529,1013.646,147.9,1015.353,155.011C1020.587,171.281,1023.488,188.177,1024,205.244C1023.943,259.573,1002.325,311.569,963.925,349.969C925.525,388.369,873.472,409.987,819.2,410.044C819.2,410.044,819.2,410.044,819.2,410.044M753.266,859.921C753.266,859.921,775.339,881.994,775.339,881.994C801.621,908.163,833.65,927.847,868.807,939.566C868.807,939.566,903.339,951.114,903.339,951.114C903.339,951.114,950.727,903.726,950.727,903.726C950.727,903.726,939.179,869.194,939.179,869.194C927.403,833.98,907.548,802.009,881.266,775.783C881.266,775.783,859.193,753.71,859.193,753.71C852.708,747.452,844.06,743.982,835.015,743.982C826.027,743.982,817.38,747.452,810.894,753.71C810.894,753.71,782.108,782.496,782.108,782.496C782.108,782.496,753.266,811.281,753.266,811.281C746.894,817.767,743.253,826.471,743.253,835.573C743.253,844.732,746.894,853.436,753.266,859.921C753.266,859.921,753.266,859.921,753.266,859.921M174.706,78.894C168.277,72.465,159.63,68.881,150.585,68.881C141.483,68.881,132.836,72.465,126.407,78.894C126.407,78.894,78.393,128.501,78.393,128.501C72.021,134.873,68.437,143.577,68.437,152.622C68.437,161.667,72.021,170.371,78.393,176.8C78.393,176.8,273.294,371.644,273.294,371.644C273.294,371.644,320,320.444,320,320.444C320,320.444,368.299,272.145,368.299,272.145C368.299,272.145,174.706,78.894,174.706,78.894C174.706,78.894,174.706,78.894,174.706,78.894" class="icon-supply"/><glyph unicode="&#x0055;" d="M558.239,186.5C208.403,186.5,8.816,431.081,0.5,838.136C0.5,838.136,175.759,838.136,175.759,838.136C181.531,539.377,310.741,412.835,413.079,386.77C413.079,386.77,413.079,838.136,413.079,838.136C413.079,838.136,578.098,838.136,578.098,838.136C578.098,838.136,578.098,580.461,578.098,580.461C679.133,591.57,785.318,708.988,821.127,838.136C821.127,838.136,986.147,838.136,986.147,838.136C972.617,771.173,945.745,707.747,907.081,651.83C868.48,595.914,818.955,548.81,761.611,513.311C825.596,480.853,882.133,434.991,927.437,378.64C972.741,322.351,1005.82,256.815,1024.5,186.5C1024.5,186.5,842.849,186.5,842.849,186.5C826.092,247.568,792.021,302.243,744.917,343.7C697.813,385.094,639.786,411.47,578.098,419.351C578.098,419.351,578.098,186.5,578.098,186.5C578.098,186.5,558.239,186.5,558.239,186.5C558.239,186.5,558.239,186.5,558.239,186.5" class="icon-vk"/><glyph unicode="&#x0056;" d="M1024.5,934.961C1024.5,934.961,862.541,94.901,862.541,94.901C862.541,94.901,839.843,36.648,777.608,64.58C777.608,64.58,403.912,359.372,403.912,359.372C403.912,359.372,402.149,360.225,402.149,360.225C452.665,406.873,844.109,768.963,861.176,785.347C887.685,810.776,871.245,825.908,840.468,806.737C840.468,806.737,262.262,428.946,262.262,428.946C262.262,428.946,39.206,506.199,39.206,506.199C39.206,506.199,4.106,518.999,0.693,546.931C-2.721,574.919,40.343,590.051,40.343,590.051C40.343,590.051,949.75,957.091,949.75,957.091C949.75,957.091,1024.5,990.882,1024.5,934.961C1024.5,934.961,1024.5,934.961,1024.5,934.961" class="icon-tg"/><glyph unicode="&#x0057;" d="M1024.333,571.899C1023.479,580.205,1019.213,587.828,1012.557,592.892C1012.557,592.892,931.432,654.674,931.432,654.674C931.432,654.674,960.958,752.524,960.958,752.524C963.347,760.545,962.38,769.249,958.227,776.474C954.017,783.756,947.077,788.933,938.941,790.867C938.941,790.867,839.84,814.135,839.84,814.135C839.84,814.135,827.21,915.569,827.21,915.569C826.186,923.932,821.749,931.442,814.979,936.334C808.266,941.284,799.789,943.161,791.597,941.625C791.597,941.625,691.642,922.339,691.642,922.339C691.642,922.339,639.019,1009.892,639.019,1009.892C634.696,1017.061,627.641,1022.124,619.506,1023.83C611.314,1025.594,602.838,1023.83,596.011,1019.052C596.011,1019.052,512.497,960.626,512.497,960.626C512.497,960.626,428.983,1019.052,428.983,1019.052C422.156,1023.83,413.623,1025.594,405.488,1023.83C397.352,1022.124,390.241,1017.061,385.918,1009.892C385.918,1009.892,333.295,922.339,333.295,922.339C333.295,922.339,233.396,941.568,233.396,941.568C225.204,943.161,216.728,941.284,209.958,936.334C203.245,931.442,198.808,923.932,197.784,915.569C197.784,915.569,185.154,814.078,185.154,814.078C185.154,814.078,86.052,790.867,86.052,790.867C77.917,788.933,70.92,783.756,66.767,776.474C62.614,769.249,61.59,760.545,64.036,752.524C64.036,752.524,93.562,654.674,93.562,654.674C93.562,654.674,12.437,592.892,12.437,592.892C5.781,587.828,1.514,580.205,0.661,571.899C-0.192,563.593,2.368,555.231,7.829,548.916C7.829,548.916,74.39,471.546,74.39,471.546C74.39,471.546,25.294,381.945,25.294,381.945C21.255,374.606,20.459,365.902,23.019,357.937C25.579,349.973,31.325,343.431,38.891,339.903C38.891,339.903,130.995,296.44,130.995,296.44C130.995,296.44,122.405,194.494,122.405,194.494C121.665,186.188,124.453,177.882,130.028,171.681C135.603,165.423,143.511,161.782,151.817,161.611C151.817,161.611,253.592,159.62,253.592,159.62C253.592,159.62,286.93,62.965,286.93,62.965C289.66,55.057,295.52,48.629,303.143,45.215C310.766,41.802,319.47,41.745,327.151,44.988C327.151,44.988,420.905,84.697,420.905,84.697C420.905,84.697,490.481,10.057,490.481,10.057C496.17,3.97,504.134,0.5,512.497,0.5C520.86,0.5,528.824,3.97,534.513,10.057C534.513,10.057,604.089,84.697,604.089,84.697C604.089,84.697,697.843,44.988,697.843,44.988C705.523,41.745,714.227,41.802,721.851,45.215C729.417,48.629,735.334,55.057,738.064,62.965C738.064,62.965,771.402,159.62,771.402,159.62C771.402,159.62,873.177,161.611,873.177,161.611C881.483,161.782,889.391,165.423,894.966,171.681C900.541,177.882,903.329,186.188,902.589,194.494C902.589,194.494,893.999,296.44,893.999,296.44C893.999,296.44,986.103,339.903,986.103,339.903C993.669,343.431,999.415,349.973,1001.975,357.994C1004.535,365.959,1003.739,374.606,999.7,381.945C999.7,381.945,950.604,471.546,950.604,471.546C950.604,471.546,1017.165,548.916,1017.165,548.916C1022.626,555.231,1025.186,563.593,1024.333,571.899C1024.333,571.899,1024.333,571.899,1024.333,571.899M887.627,460.794C887.627,460.794,931.318,381.035,931.318,381.035C931.318,381.035,849.34,342.35,849.34,342.35C837.906,336.945,831.022,324.998,832.103,312.312C832.103,312.312,839.783,221.63,839.783,221.63C839.783,221.63,749.215,219.809,749.215,219.809C736.585,219.525,725.435,211.447,721.339,199.443C721.339,199.443,691.585,113.426,691.585,113.426C691.585,113.426,608.128,148.811,608.128,148.811C596.523,153.704,583.04,150.859,574.45,141.586C574.45,141.586,512.497,75.139,512.497,75.139C512.497,75.139,450.544,141.586,450.544,141.586C444.741,147.844,436.72,151.144,428.528,151.144C424.602,151.144,420.62,150.404,416.809,148.811C416.809,148.811,333.351,113.426,333.351,113.426C333.351,113.426,303.655,199.443,303.655,199.443C299.502,211.447,288.409,219.525,275.779,219.809C275.779,219.809,185.211,221.63,185.211,221.63C185.211,221.63,192.891,312.369,192.891,312.369C193.915,324.998,187.088,336.945,175.653,342.35C175.653,342.35,93.619,381.035,93.619,381.035C93.619,381.035,137.367,460.794,137.367,460.794C143.454,471.887,142.032,485.655,133.726,495.269C133.726,495.269,74.504,564.105,74.504,564.105C74.504,564.105,146.697,619.061,146.697,619.061C156.766,626.741,161.033,639.882,157.335,652.057C157.335,652.057,131.109,739.155,131.109,739.155C131.109,739.155,219.288,759.863,219.288,759.863C231.576,762.764,240.792,773.061,242.385,785.634C242.385,785.634,253.649,875.974,253.649,875.974C253.649,875.974,342.568,858.794,342.568,858.794C354.97,856.404,367.542,862.036,374.084,872.902C374.084,872.902,420.905,950.841,420.905,950.841C420.905,950.841,495.259,898.787,495.259,898.787C505.613,891.562,519.381,891.562,529.734,898.787C529.734,898.787,604.032,950.841,604.032,950.841C604.032,950.841,650.909,872.902,650.909,872.902C657.452,862.036,669.967,856.404,682.369,858.794C682.369,858.794,771.345,875.974,771.345,875.974C771.345,875.974,782.609,785.634,782.609,785.634C784.202,773.061,793.361,762.764,805.706,759.863C805.706,759.863,893.885,739.155,893.885,739.155C893.885,739.155,867.602,652.057,867.602,652.057C863.961,639.882,868.228,626.741,878.297,619.061C878.297,619.061,950.49,564.105,950.49,564.105C950.49,564.105,891.211,495.269,891.211,495.269C882.962,485.655,881.54,471.887,887.627,460.794C887.627,460.794,887.627,460.794,887.627,460.794M512.497,802.53C353.377,802.53,223.953,672.423,223.953,512.507C223.953,352.59,353.377,222.483,512.497,222.483C671.617,222.483,801.041,352.59,801.041,512.507C801.041,672.423,671.617,802.53,512.497,802.53C512.497,802.53,512.497,802.53,512.497,802.53M512.497,283.071C386.657,283.071,284.256,385.984,284.256,512.507C284.256,639.029,386.657,741.942,512.497,741.942C638.337,741.942,740.738,639.029,740.738,512.507C740.738,385.984,638.337,283.071,512.497,283.071C512.497,283.071,512.497,283.071,512.497,283.071M630.714,598.865C618.937,610.698,599.822,610.698,588.046,598.865C588.046,598.865,480.184,490.433,480.184,490.433C480.184,490.433,436.891,533.954,436.891,533.954C425.114,545.787,406.056,545.787,394.28,533.954C382.504,522.121,382.504,502.892,394.28,491.059C394.28,491.059,458.85,426.148,458.85,426.148C464.767,420.232,472.504,417.273,480.184,417.273C487.921,417.273,495.658,420.232,501.517,426.148C501.517,426.148,630.714,556.027,630.714,556.027C642.49,567.86,642.49,587.032,630.714,598.865C630.714,598.865,630.714,598.865,630.714,598.865" class="icon-warranty"/><glyph unicode="&#x0058;" d="M874.655,875.167C778.342,971.195,649.887,1024.5,514.264,1024.5C232.436,1024.5,4.084,796.944,4.084,516.027C4.084,427.167,29.058,338.306,71.839,263.611C71.839,263.611,0.5,0.5,0.5,0.5C0.5,0.5,271.689,71.611,271.689,71.611C346.612,32.472,428.646,11.138,514.264,11.138C796.148,11.138,1024.5,238.694,1024.5,519.611C1020.916,651.138,970.968,779.138,874.655,875.167C874.655,875.167,874.655,875.167,874.655,875.167M760.479,334.722C749.784,306.278,699.835,277.833,674.861,274.249C653.414,270.722,624.912,270.722,596.354,277.833C578.491,284.944,553.517,292.056,525.016,306.278C396.56,359.64,314.47,487.64,307.359,498.278C300.191,505.389,253.826,565.862,253.826,629.862C253.826,693.805,285.968,722.249,296.664,736.472C307.359,750.694,321.638,750.694,332.333,750.694C339.444,750.694,350.139,750.694,357.307,750.694C364.418,750.694,375.113,754.278,385.865,729.36C396.56,704.5,421.535,640.5,425.119,636.916C428.646,629.805,428.646,622.694,425.119,615.583C421.535,608.472,417.951,601.36,410.84,594.249C403.672,587.138,396.56,576.5,392.976,572.916C385.865,565.805,378.697,558.694,385.865,548.056C392.976,533.833,417.951,494.694,457.204,459.138C507.152,416.472,546.406,402.249,560.685,395.138C574.964,388.027,582.075,391.611,589.243,398.722C596.354,405.833,621.328,434.278,628.44,448.5C635.608,462.722,646.303,459.138,656.998,455.611C667.693,452.027,731.92,420.056,742.616,412.944C756.895,405.833,764.063,402.249,767.59,398.722C771.174,388.027,771.174,363.167,760.479,334.722C760.479,334.722,760.479,334.722,760.479,334.722" class="icon-whatsapp"/></font>
</defs>
</svg>
